<?xml version="1.0" encoding="UTF-8" standalone="no"?>
<!-- Created with Inkscape (http://www.inkscape.org/) -->

<svg
   xmlns:dc="http://purl.org/dc/elements/1.1/"
   xmlns:cc="http://creativecommons.org/ns#"
   xmlns:rdf="http://www.w3.org/1999/02/22-rdf-syntax-ns#"
   xmlns:svg="http://www.w3.org/2000/svg"
   xmlns="http://www.w3.org/2000/svg"
   xmlns:sodipodi="http://sodipodi.sourceforge.net/DTD/sodipodi-0.dtd"
   xmlns:inkscape="http://www.inkscape.org/namespaces/inkscape"
   width="72.248886mm"
   height="72.248886mm"
   viewBox="0 0 255.99999 255.99999"
   id="svg2"
   version="1.1"
   inkscape:version="0.91 r13725"
   sodipodi:docname="upebble.svg">
  <defs
     id="defs4">
    <filter
       inkscape:collect="always"
       style="color-interpolation-filters:sRGB"
       id="filter4248"
       x="-0.025328101"
       width="1.0506562"
       y="-0.013960773"
       height="1.0279215">
      <feGaussianBlur
         inkscape:collect="always"
         stdDeviation="2.3907822"
         id="feGaussianBlur4250" />
    </filter>
  </defs>
  <sodipodi:namedview
     id="base"
     pagecolor="#ffffff"
     bordercolor="#666666"
     borderopacity="1.0"
     inkscape:pageopacity="0.0"
     inkscape:pageshadow="2"
     inkscape:zoom="3.959798"
     inkscape:cx="89.121544"
     inkscape:cy="77.044911"
     inkscape:document-units="px"
     inkscape:current-layer="layer1"
     showgrid="true"
     fit-margin-top="0"
     fit-margin-left="0"
     fit-margin-right="0"
     fit-margin-bottom="0"
     inkscape:window-width="2880"
     inkscape:window-height="1752"
     inkscape:window-x="0"
     inkscape:window-y="48"
     inkscape:window-maximized="1">
    <inkscape:grid
       type="xygrid"
       id="grid4136"
       originx="-40.000001"
       originy="-539"
       snapvisiblegridlinesonly="true"
       enabled="false" />
  </sodipodi:namedview>
  <metadata
     id="metadata7">
    <rdf:RDF>
      <cc:Work
         rdf:about="">
        <dc:format>image/svg+xml</dc:format>
        <dc:type
           rdf:resource="http://purl.org/dc/dcmitype/StillImage" />
        <dc:title></dc:title>
      </cc:Work>
    </rdf:RDF>
  </metadata>
  <g
     inkscape:label="Layer 1"
     inkscape:groupmode="layer"
     id="layer1"
     transform="translate(-40,-257.36221)">
    <rect
       style="opacity:1;fill:#78d3fc;fill-opacity:1;stroke:none;stroke-width:2;stroke-miterlimit:4;stroke-dasharray:none;stroke-opacity:1"
       id="rect4200"
       width="256"
       height="256"
       x="40"
       y="257.36221" />
    <path
       style="opacity:1;fill:#000000;fill-opacity:0.0479798;stroke:none;stroke-width:2;stroke-miterlimit:4;stroke-dasharray:none;stroke-opacity:1"
       d="m 40,257.36221 256,0 -256,256 z"
       id="rect4252"
       inkscape:connector-curvature="0"
       sodipodi:nodetypes="cccc" />
    <g
       id="g4300">
      <g
         style="fill:#000000;fill-opacity:1;opacity:0.291;filter:url(#filter4248)"
         id="g4202"
         transform="matrix(0.60632857,0,0,0.60632857,-37.462675,74.399202)">
        <path
           sodipodi:nodetypes="czccc"
           inkscape:connector-curvature="0"
           id="path4204"
           d="m 437.97969,445.08937 c 0,0 11.49464,-4.59544 12.27285,0.25253 0.77821,4.84797 2.06459,45.23266 2.06459,45.23266 -8.36034,0.32794 -13.15013,-0.0886 -13.15013,-0.0886 z"
           style="opacity:1;fill:#000000;fill-opacity:1;stroke:none;stroke-width:2;stroke-miterlimit:4;stroke-dasharray:none;stroke-opacity:1" />
        <path
           sodipodi:nodetypes="ccccc"
           inkscape:connector-curvature="0"
           id="path4206"
           d="m 439.49492,491.6046 12.68287,0.70015 0.54937,42.27954 -13.73731,0.25254 z"
           style="opacity:1;fill:#000000;fill-opacity:1;stroke:none;stroke-width:2;stroke-miterlimit:4;stroke-dasharray:none;stroke-opacity:1" />
        <rect
           style="opacity:1;fill:#000000;fill-opacity:1;stroke:none;stroke-width:2;stroke-miterlimit:4;stroke-dasharray:none;stroke-opacity:1"
           id="rect4208"
           width="120"
           height="95"
           x="280"
           y="623.36218" />
        <rect
           y="307.36221"
           x="280"
           height="95"
           width="120"
           id="rect4210"
           style="opacity:1;fill:#000000;fill-opacity:1;stroke:none;stroke-width:2;stroke-miterlimit:4;stroke-dasharray:none;stroke-opacity:1" />
        <path
           sodipodi:nodetypes="zcczz"
           inkscape:connector-curvature="0"
           id="path4212"
           d="M 228.0862,442.4309 C 228.58744,435.98794 240,437.36221 240,437.36221 l 0,42.02031 c 0,0 -14.31567,-1.22669 -13.80125,-2.84014 0.51442,-1.61345 1.3862,-27.66851 1.88745,-34.11148 z"
           style="opacity:1;fill:#000000;fill-opacity:1;stroke:none;stroke-width:2;stroke-miterlimit:4;stroke-dasharray:none;stroke-opacity:1" />
        <path
           style="opacity:1;fill:#000000;fill-opacity:1;stroke:none;stroke-width:2;stroke-miterlimit:4;stroke-dasharray:none;stroke-opacity:1"
           d="M 420,643.715 337.60905,658.36221 255,643.715 l 0,-20 165,0 z"
           id="path4214"
           inkscape:connector-curvature="0"
           sodipodi:nodetypes="cccccc" />
        <path
           sodipodi:nodetypes="cccccc"
           inkscape:connector-curvature="0"
           id="path4216"
           d="M 255,382.36221 337.39095,367.715 420,382.36221 l 0,20 -165,0 z"
           style="opacity:1;fill:#000000;fill-opacity:1;stroke:none;stroke-width:2;stroke-miterlimit:4;stroke-dasharray:none;stroke-opacity:1" />
        <path
           sodipodi:nodetypes="cczcc"
           inkscape:connector-curvature="0"
           id="path4218"
           d="m 438.52906,535.82255 c 0,0 5.15979,0.84007 13.83236,0.44761 0.13423,13.76866 -1.20901,37.74804 -1.85634,42.35471 -0.64733,4.60667 -11.01016,-0.50508 -11.01016,-0.50508 z"
           style="opacity:1;fill:#000000;fill-opacity:1;stroke:none;stroke-width:2;stroke-miterlimit:4;stroke-dasharray:none;stroke-opacity:1" />
        <path
           sodipodi:nodetypes="zzzzzzzzz"
           inkscape:connector-curvature="0"
           id="path4220"
           d="m 244.85206,406.56127 c 16.07143,-13.92858 66.12644,-13.34299 97.65304,-13.30725 31.5266,0.0357 73.56632,-0.53467 90.70918,15.17961 17.14286,15.71428 12.91706,70.98675 13.01566,106.0726 0.0986,35.08586 5.19864,81.42741 -13.01565,99.64169 C 415,632.3622 371.12033,628.47664 339.15317,628.18658 307.186,627.89652 263.91063,632.7014 245.3392,615.91569 226.76777,599.12997 231.43107,540.45867 231.61582,505.9352 c 0.18475,-34.52347 -2.83519,-85.44536 13.23624,-99.37393 z"
           style="opacity:1;fill:#000000;fill-opacity:1;stroke:none;stroke-width:2;stroke-miterlimit:4;stroke-dasharray:none;stroke-opacity:1" />
        <rect
           ry="20"
           rx="20"
           y="422.36221"
           x="260"
           height="174.99998"
           width="155"
           id="rect4222"
           style="opacity:1;fill:#000000;fill-opacity:1;stroke:none;stroke-width:2;stroke-miterlimit:4;stroke-dasharray:none;stroke-opacity:1" />
        <rect
           y="442.36221"
           x="280"
           height="135"
           width="120"
           id="rect4224"
           style="opacity:1;fill:#000000;fill-opacity:1;stroke:none;stroke-width:2;stroke-miterlimit:4;stroke-dasharray:none;stroke-opacity:1" />
        <path
           sodipodi:nodetypes="cccccccc"
           inkscape:connector-curvature="0"
           id="path4226"
           d="m 375,442.36221 25,0 0,135 -25,0 0,-109.75206 -7.32361,-5.3033 7.32361,-4.9245 z"
           style="opacity:1;fill:#000000;fill-opacity:1;stroke:none;stroke-width:2;stroke-miterlimit:4;stroke-dasharray:none;stroke-opacity:1" />
      </g>
      <path
         sodipodi:nodetypes="czccc"
         inkscape:connector-curvature="0"
         id="rect4177"
         d="m 228.09692,344.2696 c 0,0 6.96953,-2.78634 7.44138,0.15312 0.47185,2.93946 1.25182,27.42585 1.25182,27.42585 -5.06911,0.19884 -7.9733,-0.0537 -7.9733,-0.0537 z"
         style="opacity:1;fill:#ffffff;fill-opacity:1;stroke:none;stroke-width:2;stroke-miterlimit:4;stroke-dasharray:none;stroke-opacity:1" />
      <path
         sodipodi:nodetypes="ccccc"
         inkscape:connector-curvature="0"
         id="rect4179"
         d="m 229.01565,372.47312 7.68999,0.42452 0.3331,25.63529 -8.32933,0.15312 z"
         style="opacity:1;fill:#ffffff;fill-opacity:1;stroke:none;stroke-width:2;stroke-miterlimit:4;stroke-dasharray:none;stroke-opacity:1" />
      <rect
         style="opacity:1;fill:#ffffff;fill-opacity:1;stroke:none;stroke-width:2;stroke-miterlimit:4;stroke-dasharray:none;stroke-opacity:1"
         id="rect4167"
         width="72.75943"
         height="57.601215"
         x="132.30933"
         y="452.36151" />
      <rect
         y="260.76169"
         x="132.30933"
         height="57.601215"
         width="72.75943"
         id="rect4165"
         style="opacity:1;fill:#ffffff;fill-opacity:1;stroke:none;stroke-width:2;stroke-miterlimit:4;stroke-dasharray:none;stroke-opacity:1" />
      <path
         sodipodi:nodetypes="zcczz"
         inkscape:connector-curvature="0"
         id="rect4169"
         d="m 100.8325,342.6577 c 0.30392,-3.90655 7.22368,-3.07329 7.22368,-3.07329 l 0,25.47811 c 0,0 -8.679998,-0.74378 -8.36809,-1.72206 0.311907,-0.97828 0.84049,-16.77621 1.14441,-20.68276 z"
         style="opacity:1;fill:#ffffff;fill-opacity:1;stroke:none;stroke-width:2;stroke-miterlimit:4;stroke-dasharray:none;stroke-opacity:1" />
      <path
         style="opacity:1;fill:#ffffff;fill-opacity:1;stroke:none;stroke-width:2;stroke-miterlimit:4;stroke-dasharray:none;stroke-opacity:1"
         d="m 217.19532,464.702 -49.95598,8.88102 -50.08823,-8.88102 0,-12.12657 100.04421,0 z"
         id="path4175"
         inkscape:connector-curvature="0"
         sodipodi:nodetypes="cccccc" />
      <path
         sodipodi:nodetypes="cccccc"
         inkscape:connector-curvature="0"
         id="rect4172"
         d="m 117.15111,306.23633 49.95599,-8.88102 50.08822,8.88102 0,12.12658 -100.04421,0 z"
         style="opacity:1;fill:#ffffff;fill-opacity:1;stroke:none;stroke-width:2;stroke-miterlimit:4;stroke-dasharray:none;stroke-opacity:1" />
      <path
         sodipodi:nodetypes="cczcc"
         inkscape:connector-curvature="0"
         id="rect4181"
         d="m 228.43002,399.28372 c 0,0 3.12853,0.50936 8.38696,0.2714 0.0814,8.34833 -0.73306,22.88772 -1.12555,25.68087 -0.3925,2.79316 -6.67578,-0.30624 -6.67578,-0.30624 z"
         style="opacity:1;fill:#ffffff;fill-opacity:1;stroke:none;stroke-width:2;stroke-miterlimit:4;stroke-dasharray:none;stroke-opacity:1" />
      <path
         sodipodi:nodetypes="zzzzzzzzz"
         inkscape:connector-curvature="0"
         id="rect4149"
         d="m 110.99812,320.90892 c 9.74457,-8.4453 40.09435,-8.09024 59.20983,-8.06857 19.11548,0.0217 44.60536,-0.32419 54.99957,9.20383 10.39421,9.52802 7.83198,43.0413 7.89177,64.31485 0.0598,21.27356 3.15208,49.37176 -7.89176,60.4156 -11.04385,11.04384 -37.64935,8.68791 -57.03195,8.51204 -19.38261,-0.17587 -45.6217,2.73747 -56.88209,-7.44019 -11.26039,-10.17766 -8.4329,-45.75175 -8.32088,-66.68431 0.11202,-20.93257 -1.71905,-51.80796 8.02551,-60.25325 z"
         style="opacity:1;fill:#cbcbcb;fill-opacity:1;stroke:none;stroke-width:2;stroke-miterlimit:4;stroke-dasharray:none;stroke-opacity:1" />
      <path
         style="opacity:1;fill:#000000;fill-opacity:1;stroke:none;stroke-width:2;stroke-miterlimit:4;stroke-dasharray:none;stroke-opacity:1"
         d="m 133.22587,330.48948 69.72779,0 c 6.71812,0 11.83367,5.41484 12.12657,12.12657 1.19073,27.28478 1.19022,54.56956 0,81.85435 -0.29278,6.71174 -5.40845,12.12657 -12.12657,12.12657 l -69.72779,0 c -6.71812,0 -11.82926,-5.41504 -12.12657,-12.12657 -1.18246,-26.69356 -1.65764,-53.74075 0,-81.85435 0.39543,-6.70647 5.40845,-12.12657 12.12657,-12.12657 z"
         id="rect4152"
         inkscape:connector-curvature="0"
         sodipodi:nodetypes="sssssssss" />
      <rect
         y="342.61606"
         x="131.62029"
         height="81.854355"
         width="72.75943"
         id="rect4154"
         style="opacity:1;fill:#ffffff;fill-opacity:1;stroke:none;stroke-width:2;stroke-miterlimit:4;stroke-dasharray:none;stroke-opacity:1" />
      <path
         sodipodi:nodetypes="cccccccc"
         inkscape:connector-curvature="0"
         id="rect4156"
         d="m 189.2215,342.61605 15.15821,0 0,81.85436 -15.15821,0 0,-66.54581 -4.44052,-3.21555 4.44052,-2.98586 z"
         style="opacity:1;fill:#78d3fc;fill-opacity:1;stroke:none;stroke-width:2;stroke-miterlimit:4;stroke-dasharray:none;stroke-opacity:1" />
    </g>
    <path
       style="fill:#000000"
       d="m 143.63128,393.17695 c -0.82884,-0.82884 0.32908,-1.46136 2.67524,-1.46136 3.02637,0 3.07586,-0.7116 0.31911,-4.58902 l -2.10477,-2.96041 2.0287,-2.94922 c 1.15063,-1.67272 2.20678,-4.13671 2.44014,-5.69282 0.40696,-2.71383 0.44252,-2.74828 3.27625,-3.17322 1.57564,-0.23629 4.03472,-1.23453 5.46462,-2.21832 1.42988,-0.98379 2.85437,-1.78871 3.16551,-1.78871 0.31114,0 1.68177,0.80847 3.04585,1.7966 1.40341,1.01663 3.70432,1.98019 5.29992,2.21946 2.92933,0.43928 2.99923,0.52347 3.81465,4.59457 0.23714,1.18397 1.22649,3.16119 2.19857,4.39382 0.97208,1.23265 1.76741,2.42825 1.76741,2.6569 0,0.22864 -0.83031,1.62253 -1.84514,3.09753 -2.44659,3.556 -2.38325,4.49115 0.32038,4.72947 1.19102,0.10499 2.22891,0.46766 2.30641,0.80594 0.15778,0.68864 -33.49245,1.21919 -34.17285,0.53879 z m 27.8729,-2.84521 c 0.009,-0.76112 0.83738,-2.4679 1.83992,-3.79283 l 1.82279,-2.40898 -1.58789,-2.08183 c -0.87334,-1.14501 -1.90888,-3.37431 -2.30119,-4.954 -0.68475,-2.75721 -0.82407,-2.89364 -3.48101,-3.40876 -1.52223,-0.29514 -3.68339,-1.22898 -4.80255,-2.0752 l -2.03486,-1.53859 -2.27046,1.53481 c -2.19134,1.48132 -2.85113,1.74296 -6.34208,2.51493 -1.32103,0.29212 -1.68348,0.80695 -2.01126,2.85674 -0.2199,1.37522 -1.11243,3.57721 -1.98338,4.8933 l -1.58355,2.39291 1.54803,2.0343 c 0.85141,1.11887 1.73796,2.79542 1.97011,3.72567 l 0.42209,1.69138 10.38909,0 c 10.35877,0 10.38914,-0.004 10.4062,-1.38385 z m -16.16204,-1.17442 c -3.00082,-0.83158 -3.29439,-2.70542 -0.30753,-1.96294 1.0994,0.27329 2.9676,0.49689 4.15156,0.49689 1.18396,0 3.05216,-0.2236 4.15155,-0.49689 1.34833,-0.33517 1.9989,-0.27586 1.9989,0.18225 0,1.61808 -6.44052,2.76557 -9.99448,1.78069 z m -1.87921,-5.21512 c -0.23497,-0.23497 -0.42721,-1.51123 -0.42721,-2.83614 0,-2.76084 1.40937,-2.98541 1.73071,-0.27578 0.21201,1.78766 -0.62633,3.78908 -1.3035,3.11192 z m 10.02856,-2.68238 c 0,-1.7768 0.25627,-2.46018 0.92256,-2.46018 0.6663,0 0.92257,0.68338 0.92257,2.46018 0,1.7768 -0.25627,2.46018 -0.92257,2.46018 -0.66629,0 -0.92256,-0.68338 -0.92256,-2.46018 z m -22.75668,2.7677 c 0,-0.69366 0.43166,-0.94682 1.38386,-0.81158 0.76111,0.10809 1.38385,0.47331 1.38385,0.81158 0,0.33828 -0.62274,0.70349 -1.38385,0.81159 -0.9522,0.13523 -1.38386,-0.11793 -1.38386,-0.81159 z m 37.8226,0.30318 c -0.46699,-0.7556 1.22568,-1.49279 2.13592,-0.93022 0.35999,0.22248 0.4953,0.66216 0.30068,0.97707 -0.46943,0.75955 -1.95589,0.73096 -2.4366,-0.0469 z m -32.49939,-13.42132 c -1.23387,-1.36341 -1.29125,-1.95046 -0.19065,-1.95046 1.05106,0 3.00139,2.11681 2.45435,2.66385 -0.65422,0.65422 -1.17438,0.49029 -2.2637,-0.71339 z m 27.38286,0.11435 c 0.23773,-1.20797 2.11252,-2.50883 2.72827,-1.89307 0.48678,0.48678 -1.47947,2.90348 -2.36232,2.90348 -0.31065,0 -0.47533,-0.45468 -0.36595,-1.01041 z m -13.38512,-4.7488 c -0.52662,-1.37234 -0.0519,-3.6431 0.82178,-3.93083 0.51752,-0.17043 0.76881,0.45533 0.76881,1.91443 0,2.29458 -0.99824,3.56005 -1.59059,2.0164 z"
       id="path4285"
       inkscape:connector-curvature="0"
       sodipodi:nodetypes="ssscsssssssssssssssscsssscsssscsscsssssssssssssssssssssscssccssssssssssss" />
    <text
       xml:space="preserve"
       style="font-style:normal;font-weight:normal;font-size:40px;line-height:125%;font-family:sans-serif;letter-spacing:0px;word-spacing:0px;fill:#000000;fill-opacity:1;stroke:none;stroke-width:1px;stroke-linecap:butt;stroke-linejoin:miter;stroke-opacity:1"
       x="136.46957"
       y="405.82156"
       id="text4342"
       sodipodi:linespacing="125%"><tspan
         sodipodi:role="line"
         id="tspan4344"
         x="136.46957"
         y="405.82156"
         style="font-style:normal;font-variant:normal;font-weight:normal;font-stretch:normal;font-size:10px;font-family:Ubuntu;-inkscape-font-specification:Ubuntu">Tomorrow</tspan></text>
  </g>
</svg>
